# xmcd
#
# Track frame offsets: 
#        150
#        33545
#        45200
#        55230
#        78330
#        99915
#        113287
#        127695
#        142597
#
# Disc length: 2170 seconds
#
# Revision: 2
# Processed by: cddbd v1.5.1PL0 Copyright (c) Steve Scherf et al.
# Submitted via: ExactAudioCopy v0.95a5
#
DISCID=57087809
DTITLE=이광수 - 아라리오
DYEAR=1996
DGENRE=국악
TTITLE0=프롤로그
TTITLE1=아리랑
TTITLE2=긴 아리랑
TTITLE3=정선 아리랑
TTITLE4=강원도 아리랑 - 한 오백년
TTITLE5=口音
TTITLE6=밀양아리랑
TTITLE7=진도아리랑
TTITLE8=모노로그
EXTD=
EXTT0=
EXTT1=
EXTT2=
EXTT3=
EXTT4=
EXTT5=
EXTT6=
EXTT7=
EXTT8=
PLAYORDER=
